<?xml version="1.0" encoding="utf-8"?>
<!-- Generator: Adobe Illustrator 17.1.0, SVG Export Plug-In . SVG Version: 6.00 Build 0)  -->
<!DOCTYPE svg PUBLIC "-//W3C//DTD SVG 1.1//EN" "http://www.w3.org/Graphics/SVG/1.1/DTD/svg11.dtd">
<svg version="1.1" id="Layer_1" xmlns="http://www.w3.org/2000/svg" xmlns:xlink="http://www.w3.org/1999/xlink" x="0px" y="0px"
	 viewBox="0 0 33.5 33.5" enable-background="new 0 0 33.5 33.5" xml:space="preserve">
<polygon fill="#F68A20" points="33.5,32.344 1.231,0.003 15.534,-0.003 33.5,17.963 "/>
<g>
	<path fill="#FFFFFF" d="M10.606,6.588l4.413-4.413l1.546,1.546c0.257,0.257,0.462,0.51,0.615,0.761
		c0.154,0.251,0.251,0.496,0.291,0.737c0.04,0.24,0.022,0.473-0.056,0.699c-0.078,0.225-0.22,0.441-0.426,0.647
		c-0.101,0.101-0.211,0.185-0.329,0.253c-0.118,0.068-0.243,0.116-0.376,0.145C16.152,6.992,16.014,7,15.87,6.987
		c-0.144-0.013-0.292-0.053-0.444-0.12c0.097,0.162,0.159,0.321,0.185,0.479c0.026,0.158,0.026,0.31-0.002,0.456
		c-0.027,0.146-0.078,0.284-0.153,0.414c-0.075,0.129-0.166,0.248-0.273,0.355c-0.428,0.428-0.89,0.614-1.384,0.556
		c-0.494-0.058-0.996-0.341-1.505-0.85L10.606,6.588z M14.08,4.934l0.673,0.673c0.236,0.228,0.458,0.352,0.665,0.371
		c0.207,0.019,0.398-0.058,0.571-0.232c0.2-0.2,0.286-0.402,0.258-0.606c-0.028-0.204-0.168-0.431-0.418-0.682l-0.637-0.637
		L14.08,4.934z M13.437,5.576l-1.191,1.191l0.779,0.779c0.117,0.117,0.233,0.204,0.347,0.259s0.225,0.086,0.333,0.091
		c0.108,0.005,0.211-0.014,0.308-0.056s0.187-0.105,0.27-0.188c0.095-0.095,0.168-0.192,0.22-0.292
		c0.052-0.1,0.078-0.203,0.08-0.308c0.002-0.105-0.024-0.213-0.079-0.324c-0.055-0.111-0.139-0.224-0.255-0.339L13.437,5.576z"/>
	<path fill="#FFFFFF" d="M19.136,11.293L17.39,9.547l-1.182,1.182l2.049,2.049l-0.73,0.73l-2.959-2.959l4.413-4.413l2.952,2.952
		l-0.737,0.737l-2.043-2.043l-1.052,1.052l1.746,1.746L19.136,11.293z"/>
	<path fill="#FFFFFF" d="M25.119,13.748l-1.352-1.352l-3.677,3.677l-0.909-0.909l3.677-3.677l-1.334-1.334l0.737-0.737l3.595,3.595
		L25.119,13.748z"/>
	<path fill="#FFFFFF" d="M24.998,19.161l-1.594-1.594l-1.212,0.606l-0.967-0.967l6.056-2.77l0.843,0.843l-2.761,6.065l-0.967-0.967
		L24.998,19.161z M24.385,17.076l1.103,1.103l1.097-2.207L24.385,17.076z"/>
	<path fill="#FFFFFF" d="M26.168,21.326c0.067-0.067,0.14-0.117,0.22-0.15c0.08-0.033,0.162-0.05,0.246-0.048
		c0.084,0.001,0.167,0.02,0.25,0.056c0.083,0.036,0.162,0.092,0.236,0.167c0.075,0.075,0.131,0.154,0.168,0.238
		c0.037,0.084,0.057,0.168,0.058,0.252s-0.015,0.166-0.048,0.246s-0.083,0.153-0.15,0.22c-0.067,0.067-0.139,0.116-0.218,0.149
		c-0.079,0.032-0.16,0.048-0.244,0.047s-0.168-0.02-0.252-0.058c-0.084-0.037-0.163-0.093-0.238-0.168
		c-0.075-0.075-0.13-0.154-0.167-0.236c-0.036-0.083-0.055-0.166-0.056-0.25s0.015-0.165,0.047-0.244
		C26.051,21.465,26.101,21.392,26.168,21.326z M27.962,21.235l-0.727-0.727l2.955-3.161l0.934,0.934L27.962,21.235z"/>
</g>
</svg>
