<?xml version="1.0" encoding="utf-8"?>
<!-- Generator: Adobe Illustrator 17.1.0, SVG Export Plug-In . SVG Version: 6.00 Build 0)  -->
<!DOCTYPE svg PUBLIC "-//W3C//DTD SVG 1.1//EN" "http://www.w3.org/Graphics/SVG/1.1/DTD/svg11.dtd">
<svg version="1.1" id="Layer_1" xmlns="http://www.w3.org/2000/svg" xmlns:xlink="http://www.w3.org/1999/xlink" x="0px" y="0px"
	 viewBox="0 0 200 200" enable-background="new 0 0 200 200" xml:space="preserve">
<g>
	<g>
		<path fill-rule="evenodd" clip-rule="evenodd" fill="#FFFFFF" d="M151.988,31.589C137.689,17.234,120.37,9.992,100.036,9.864
			l-0.053,0.074c-20.337,0-37.6,7.296-51.899,21.651C33.784,45.946,26.635,63.35,26.635,83.803c0,20.328,7.245,37.574,21.734,51.738
			c14.49,14.167,31.711,21.248,51.667,21.248c20.081,0,37.335-7.081,51.762-21.248c14.424-14.164,21.639-31.41,21.639-51.738
			C173.436,63.35,166.287,45.946,151.988,31.589z M137.759,122.543c-10.646,10.917-23.284,16.372-37.912,16.372
			c-6.084,0-11.803-0.998-17.197-2.881c-0.201-1.173-0.384-2.434-0.547-3.803c-0.351-2.941-0.173-6.215,0.532-9.823
			c0.827-4.235,2.676-8.117,5.552-11.647c2.874-3.529,6.287-6.921,10.244-10.176c3.954-3.254,8.186-6.529,12.696-9.823
			c4.508-3.294,8.793-6.842,12.857-10.647c4.062-3.803,7.629-7.98,10.703-12.529c3.072-4.548,5.176-9.724,6.31-15.529
			c0.197-1.007,0.342-1.986,0.465-2.952c8.166,9.852,12.266,21.423,12.266,34.727C153.728,98.725,148.405,111.627,137.759,122.543z
			 M69.987,162.642c-3.782,0-7.312,1.294-10.59,3.882c-3.248,2.432-5.232,5.491-5.952,9.176c-0.705,3.608,0.085,6.667,2.368,9.176
			c2.366,2.509,5.398,3.765,9.097,3.765c3.697,0,7.219-1.255,10.567-3.765c3.263-2.509,5.247-5.568,5.952-9.176
			c0.72-3.686-0.07-6.744-2.368-9.176C76.793,163.936,73.768,162.642,69.987,162.642z"/>
	</g>
</g>
<path fill-rule="evenodd" clip-rule="evenodd" fill="#45A8DE" d="M119.84,44.527c0.987,2.903,1.114,6.235,0.379,10
	c-0.858,4.393-2.714,8.412-5.569,12.059c-2.855,3.647-6.206,7.138-10.049,10.47c-3.846,3.335-7.975,6.629-12.392,9.882
	c-4.417,3.255-8.568,6.647-12.45,10.176c-3.884,3.529-7.29,7.314-10.221,11.353c-2.932,4.04-4.888,8.57-5.868,13.588
	c-0.122,0.625-0.182,1.255-0.282,1.882c-0.481-0.463-0.98-0.878-1.453-1.362C51.289,111.681,45.966,98.803,45.966,83.94
	c0-15.005,5.248-27.812,15.751-38.418c4.719-4.766,9.908-8.416,15.519-11.069c5.922-2.027,12.003-3.102,18.264-3.102
	c3.949,0,7.593,0.491,10.932,1.47c3.338,0.982,6.159,2.452,8.466,4.412C117.204,39.194,118.85,41.626,119.84,44.527z"/>
<path fill-rule="evenodd" clip-rule="evenodd" fill="#F68A1F" d="M137.759,122.543c-10.646,10.917-23.284,16.372-37.912,16.372
	c-6.084,0-11.803-0.998-17.197-2.881c-0.201-1.173-0.384-2.434-0.547-3.803c-0.351-2.941-0.173-6.215,0.532-9.823
	c0.827-4.235,2.676-8.117,5.552-11.647c2.874-3.529,6.287-6.921,10.244-10.176c3.954-3.254,8.186-6.529,12.696-9.823
	c4.508-3.294,8.793-6.842,12.857-10.647c4.062-3.803,7.629-7.98,10.703-12.529c3.072-4.548,5.176-9.724,6.31-15.529
	c0.197-1.007,0.342-1.986,0.465-2.952c8.166,9.852,12.266,21.423,12.266,34.727C153.728,98.725,148.405,111.627,137.759,122.543z"/>
</svg>
