<?xml version="1.0" encoding="utf-8"?>
<!-- Generator: Adobe Illustrator 17.1.0, SVG Export Plug-In . SVG Version: 6.00 Build 0)  -->
<!DOCTYPE svg PUBLIC "-//W3C//DTD SVG 1.1//EN" "http://www.w3.org/Graphics/SVG/1.1/DTD/svg11.dtd">
<svg version="1.1" id="Layer_1" xmlns="http://www.w3.org/2000/svg" xmlns:xlink="http://www.w3.org/1999/xlink" x="0px" y="0px"
	 viewBox="0 0 186 38" style="enable-background:new 0 0 186 38;" xml:space="preserve">
<style type="text/css">
	.st0{fill:none;}
	.st1{fill-rule:evenodd;clip-rule:evenodd;fill:#45A8DE;}
	.st2{fill-rule:evenodd;clip-rule:evenodd;fill:#F68A1F;}
	.st3{fill:#FFFFFF;}
</style>
<rect class="st0" width="186" height="38"/>
<g>
	<path class="st1" d="M19.2,7.4c0.2,0.6,0.2,1.3,0.1,2.1c-0.2,0.9-0.6,1.7-1.2,2.5s-1.3,1.5-2.1,2.2c-0.8,0.7-1.7,1.4-2.6,2
		c-0.9,0.7-1.8,1.4-2.6,2.1C10,19,9.3,19.8,8.7,20.6c-0.6,0.8-1,1.8-1.2,2.8c0,0.1,0,0.3-0.1,0.4c-0.1-0.1-0.2-0.2-0.3-0.3
		c-2.2-2.3-3.3-4.9-3.3-8c0-3.1,1.1-5.8,3.3-8c1-1,2.1-1.7,3.2-2.3c1.2-0.4,2.5-0.6,3.8-0.6c0.8,0,1.6,0.1,2.3,0.3
		c0.7,0.2,1.3,0.5,1.8,0.9C18.6,6.3,19,6.8,19.2,7.4z"/>
	<path class="st2" d="M22.5,23.4c-2.2,2.2-4.8,3.3-7.8,3.3c-1.2,0-2.4-0.2-3.5-0.6c0-0.2-0.7-1-0.8-1.3c-0.1-0.6-0.1-1.3,0-2.1
		c0.2-0.9,1.3-1.1,1.9-1.8c0.6-0.7,1.3-1.4,2.1-2.1c0.8-0.7,1.7-1.3,2.6-2c0.9-0.7,1.8-1.4,2.6-2.2c0.8-0.8,1.6-1.6,2.2-2.6
		c0.6-0.9,1.1-2,1.3-3.2c0-0.2,0.1-0.4,0.1-0.6c1.7,2,2.5,4.4,2.5,7.1C25.8,18.6,24.7,21.2,22.5,23.4z"/>
	<g>
		<path class="st3" d="M1,15.2c0-1.9,0.4-3.8,1.1-5.5C2.8,7.9,3.9,6.4,5.3,5c1.3-1.3,2.8-2.3,4.5-3c1.6-0.7,3.4-1,5.3-1
			c1.9,0,3.7,0.3,5.4,1s3.1,1.7,4.5,3C26.3,6.4,27.3,8,28,9.7s1.1,3.5,1.1,5.5c0,2-0.3,3.8-0.9,5.4c-0.6,1.6-1.5,3.1-2.7,4.4
			c-1.4,1.5-3,2.7-4.8,3.5c-1.8,0.8-3.7,1.2-5.7,1.2c-2.1,0-4-0.4-5.7-1.2c-1.7-0.8-3.3-2-4.7-3.5c-1.2-1.3-2.1-2.8-2.7-4.4
			C1.3,18.8,1,17,1,15.2z M5.2,15.2c0,1.4,0.2,2.8,0.7,4.1c0.5,1.3,1.2,2.4,2.1,3.3c0.9,1,2,1.7,3.3,2.3c1.2,0.5,2.5,0.8,3.8,0.8
			c2.8,0,5.2-1,7.1-3s2.9-4.5,2.9-7.5c0-1.3-0.2-2.5-0.7-3.6c-0.5-1.2-1.1-2.2-2-3.2c-1-1.1-2.2-1.9-3.4-2.5C17.8,5.3,16.4,5,15,5
			c-1.3,0-2.5,0.2-3.7,0.7c-1.2,0.5-2.2,1.2-3.1,2.1C7.2,8.8,6.5,10,6,11.3C5.4,12.5,5.2,13.9,5.2,15.2z"/>
		<path class="st3" d="M36.1,27.7v8.9c0,0.3-0.2,0.5-0.5,0.5h-2.7c-0.3,0-0.5-0.2-0.5-0.5V8.3c0-0.3,0.2-0.5,0.5-0.5h2.8
			c0.3,0,0.5,0.2,0.5,0.5v1.3c0,0.4,0.5,0.7,0.8,0.4c0.7-0.6,1.5-1.1,2.4-1.5c1.2-0.5,2.4-0.8,3.8-0.8c3.1,0,5.7,1,7.8,3.1
			c2.1,2.1,3.1,4.7,3.1,7.8c0,1.4-0.3,2.8-0.8,4.1c-0.5,1.3-1.3,2.5-2.2,3.5c-1,1.1-2.2,1.9-3.4,2.4c-1.2,0.5-2.7,0.8-4.2,0.8
			c-1.4,0-2.7-0.3-3.9-0.8c-0.9-0.4-1.7-0.9-2.5-1.5C36.6,27.1,36.1,27.3,36.1,27.7z M36,18.6c0,2.1,0.7,3.8,2.1,5.3
			c1.4,1.4,3,2.2,4.9,2.2c2,0,3.6-0.7,5-2.1c1.4-1.4,2.1-3.1,2.1-5.1c0-2.1-0.7-3.9-2.1-5.3c-1.4-1.4-3.1-2.1-5.1-2.1
			c-1.8,0-3.5,0.7-4.9,2.1C36.7,15,36,16.6,36,18.6z"/>
		<path class="st3" d="M62,20.1c-0.3,0-0.6,0.3-0.5,0.6c0.4,1.4,1.1,2.6,2.2,3.6c1.3,1.1,2.7,1.6,4.5,1.6c1.2,0,2.4-0.3,3.4-0.9
			c0.9-0.5,1.7-1.3,2.3-2.2c0.1-0.1,0.3-0.2,0.4-0.2h3.1c0.4,0,0.6,0.4,0.5,0.7c-0.9,1.9-2.2,3.5-3.7,4.5c-1.7,1.2-3.7,1.8-6,1.8
			c-1.5,0-2.9-0.3-4.2-0.8c-1.3-0.5-2.4-1.3-3.5-2.4c-1-1-1.7-2.2-2.3-3.5c-0.5-1.3-0.8-2.7-0.8-4.1c0-1.4,0.2-2.8,0.7-4.1
			s1.2-2.4,2.2-3.5c1-1.1,2.2-2,3.5-2.5c1.3-0.6,2.7-0.9,4.3-0.9c1.8,0,3.5,0.4,5.1,1.3c1.6,0.8,2.9,2,3.9,3.5
			c0.6,0.9,1.1,2,1.3,3.1s0.4,2.4,0.4,3.8c0,0,0.1,0.3-0.1,0.4c-0.2,0.2-0.5,0.1-0.5,0.1H62z M74.1,16.8c0.3,0,0.6-0.3,0.5-0.7
			c-0.5-1.4-1.2-2.5-2.2-3.3c-1.1-0.9-2.5-1.4-4.1-1.4c-1.6,0-3.1,0.5-4.3,1.4c-1,0.8-1.8,1.9-2.3,3.3c-0.1,0.3,0.1,0.7,0.5,0.7
			H74.1z"/>
		<path class="st3" d="M85.4,29.6h-2.7c-0.3,0-0.5-0.2-0.5-0.5V8.3c0-0.3,0.2-0.5,0.5-0.5h2.6c0.3,0,0.5,0.2,0.5,0.5v2.3
			c0.8-1,1.6-1.7,2.6-2.1c0.9-0.4,2-0.7,3.2-0.7c2.7,0,4.8,0.8,6.3,2.5s2.2,4,2.2,7.1v11.7c0,0.3-0.2,0.5-0.5,0.5h-2.7
			c-0.3,0-0.5-0.2-0.5-0.5V18.2c0-2.3-0.4-4-1.2-5.1c-0.8-1.1-2.1-1.6-3.8-1.6c-1.9,0-3.2,0.6-4.1,1.9s-1.3,3.4-1.3,6.4v9.2
			C85.9,29.4,85.7,29.6,85.4,29.6z"/>
		<path class="st3" d="M103.3,29.1V1.5c0-0.3,0.2-0.5,0.5-0.5h12.5c0.3,0,0.5,0.2,0.5,0.5v2.7c0,0.3-0.2,0.5-0.5,0.5h-8.6
			c-0.3,0-0.5,0.2-0.5,0.5v7.8c0,0.3,0.2,0.5,0.5,0.5h8.6c0.3,0,0.5,0.2,0.5,0.5v2.6c0,0.3-0.2,0.5-0.5,0.5h-8.6
			c-0.3,0-0.5,0.2-0.5,0.5v11.5c0,0.3-0.2,0.5-0.5,0.5h-2.9C103.5,29.6,103.3,29.4,103.3,29.1z"/>
		<path class="st3" d="M120.2,29.1V1.5c0-0.3,0.2-0.5,0.5-0.5h2.7c0.3,0,0.5,0.2,0.5,0.5v27.6c0,0.3-0.2,0.5-0.5,0.5h-2.7
			C120.4,29.6,120.2,29.4,120.2,29.1z"/>
		<path class="st3" d="M127.2,18.8c0-1.5,0.2-2.8,0.7-4.1c0.5-1.3,1.2-2.4,2.2-3.4c1-1.1,2.2-2,3.5-2.6c1.3-0.6,2.7-0.9,4.1-0.9
			c1.5,0,2.9,0.3,4.2,0.8s2.5,1.3,3.5,2.4c1,1,1.8,2.2,2.4,3.5c0.5,1.3,0.8,2.6,0.8,4c0,1.4-0.3,2.8-0.8,4.1
			c-0.5,1.3-1.2,2.5-2.1,3.5c-1.1,1.1-2.2,2-3.6,2.6c-1.3,0.6-2.7,0.9-4.2,0.9c-1.5,0-2.9-0.3-4.2-0.8c-1.3-0.5-2.4-1.3-3.5-2.4
			c-1-1-1.7-2.2-2.3-3.5C127.5,21.6,127.2,20.2,127.2,18.8z M131.1,18.8c0,2.1,0.7,3.8,2,5.1c1.3,1.4,3,2.1,4.9,2.1
			c1.9,0,3.5-0.7,4.8-2.1c1.3-1.4,2-3.1,2-5.2c0-2.1-0.7-3.8-2-5.2c-1.3-1.4-2.9-2-4.9-2c-1.9,0-3.6,0.7-4.9,2.1
			C131.7,15,131.1,16.7,131.1,18.8z"/>
		<path class="st3" d="M151.9,18.8c0-1.5,0.2-2.8,0.7-4.1c0.5-1.3,1.2-2.4,2.2-3.4c1-1.1,2.2-2,3.5-2.6c1.3-0.6,2.7-0.9,4.1-0.9
			c1.5,0,2.9,0.3,4.2,0.8s2.5,1.3,3.5,2.4c1,1,1.8,2.2,2.4,3.5c0.5,1.3,0.8,2.6,0.8,4c0,1.4-0.3,2.8-0.8,4.1
			c-0.5,1.3-1.2,2.5-2.1,3.5c-1.1,1.1-2.2,2-3.6,2.6c-1.3,0.6-2.7,0.9-4.2,0.9c-1.5,0-2.9-0.3-4.2-0.8c-1.3-0.5-2.4-1.3-3.5-2.4
			c-1-1-1.7-2.2-2.3-3.5C152.2,21.6,151.9,20.2,151.9,18.8z M155.8,18.8c0,2.1,0.7,3.8,2,5.1c1.3,1.4,3,2.1,4.9,2.1
			c1.9,0,3.5-0.7,4.8-2.1c1.3-1.4,2-3.1,2-5.2c0-2.1-0.7-3.8-2-5.2c-1.3-1.4-2.9-2-4.9-2c-1.9,0-3.6,0.7-4.9,2.1
			C156.5,15,155.8,16.7,155.8,18.8z"/>
		<path class="st3" d="M179.9,29.6h-2.7c-0.3,0-0.5-0.2-0.5-0.5V8.3c0-0.3,0.2-0.5,0.5-0.5h2.5c0.3,0,0.5,0.2,0.5,0.5v2.2
			c0.6-0.9,1.3-1.6,2.1-2.1c0.7-0.4,1.4-0.6,2.3-0.7c0.3,0,0.5,0.2,0.5,0.5v3c0,0.3-0.2,0.5-0.5,0.5c-1.4,0.2-2.5,0.7-3.1,1.4
			c-0.7,0.9-1.1,2.3-1.1,4.2v11.6C180.4,29.4,180.2,29.6,179.9,29.6z"/>
	</g>
	<path class="st3" d="M11.4,27.1c-0.1-0.4,1.1-1.7,0.6-1.9c-1-0.4-1-0.9-0.8-1.6c0.2-0.9,0.7-1.6,1.2-2.4c0.6-0.7,1.3-1.4,2.1-2.1
		c0.8-0.7,1.7-1.3,2.6-2c0.9-0.7,1.8-1.4,2.6-2.2c0.8-0.8,1.6-1.6,2.2-2.6c0.6-0.9,1.1-2,1.3-3.2c0.2-1.3,0.2-2.4-0.1-3.3
		c-0.3-0.9-0.8-1.7-1.6-2.4c-0.7-0.6-1.7-1.1-2.7-1.4c-1.1-0.3-2.3-0.5-3.6-0.5c-2.8,0-5.6,1-8.6,2.5l-0.9,4c2.5-2.1,5.3-2.5,8.1-3
		c1.2-0.2,1.8-0.1,2.5,0C16.9,5.2,17.4,5.4,18,6c0.4,0.4,0.7,0.9,0.9,1.5c0.2,0.6,0.1,1.3,0,2.1c-0.2,0.9-0.6,1.7-1.1,2.5
		c-0.6,0.7-1.3,1.5-2.1,2.1c-0.8,0.7-1.6,1.4-2.5,2c-0.9,0.7-1.8,1.4-2.5,2.1c-0.8,0.7-1.5,1.5-2.1,2.3c-0.6,0.8-1,1.8-1.2,2.8
		c-0.1,0.7-0.2,1.3-0.2,2c0,0.7,0,1.2,0.1,1.6H11.4z M9.7,36.3c0.7-0.5,1.1-1.1,1.2-1.9c0.1-0.8,0-1.4-0.5-1.9
		C10,32,9.4,31.8,8.6,31.8c-0.8,0-1.5,0.3-2.2,0.8c-0.7,0.5-1.1,1.1-1.2,1.9c-0.1,0.7,0,1.4,0.5,1.9c0.5,0.5,1.1,0.8,1.9,0.8
		C8.3,37.1,9.1,36.8,9.7,36.3L9.7,36.3z"/>
</g>
</svg>
